<?xml version="1.0" encoding="UTF-8"?>
<svg version="1.1" viewBox="0 0 1352 1124" width="338" height="281" xmlns="http://www.w3.org/2000/svg">
<path transform="translate(1343,6)" d="m0 0 2 1-15 16-13 13-7 8-9 9-7 8-14 15-7 8-9 9-7 8-8 8-7 8-15 16-12 13-7 7-7 8-9 9-7 8-15 16-7 8-8 8-1 2h-2l-2 4-12 12-7 8-15 16-11 12-29 31-5 6h-2l-2 4-7 7-1 2h-2l-2 4-10 10-14 16h-2l-2 4-10 10-7 8-16 17-12 13-31 33-9 10-31 33-16 17-11 12-12 13-7 7-7 8-9 9-14 16h-2l-2 4-6 6h-2l1 3 3 2v2l4 2 43 43 2 1v2l4 2v2l4 2 37 37 2 1v2l4 2 27 27 2 1v2l4 2 26 26 8 7 48 48 2 1v2h2v2h2v2l4 2 33 33 8 7 17 17-2 2h-306l-74-74v-2h-2v-2h-2l-7-8-68-68-7-8-31-31 2-4 14-13 8-7 30-26h3l170 170h91l-5-6-8-7-13-13v-2l-3-1-7-8-32-32-7-8-36-36-7-8-71-71-7-8-16-16v-3l11-8 13-11 13-12 11-9 13-12 11-9 13-12 8-7 10-9 11-9 15-14 11-9 12-11 8-7 11-10 11-9 15-14 11-9 12-11 8-7 11-10 11-9 15-14 11-9 12-11 8-7 11-10 11-9 14-13 8-7 14-12 11-10 8-7 14-12 13-12 8-7 14-12 11-10 8-7 14-12 12-11 8-7 14-12 12-11 8-7 10-9 11-9 16-15 8-7 14-12 30-26 12-11 11-9z" fill="#87FCC0"/>
<path transform="translate(243,272)" d="m0 0h303l6 5v2l4 2v2l4 2 179 179-1 4-16 15-8 7-20 18-6 5-1 2-4-2-164-164h-97l20 20 8 7 120 120 2 1v2h2l7 8 44 44 7 8-2 4-8 7-20 18-8 7-20 18-8 7-10 9-8 7-10 9-14 12-15 14-11 9-15 14-8 7-11 10-7 6h-2v2l-8 7-10 9-8 7-10 9-8 7-10 9-8 7-10 9-14 12-14 13-8 7-14 12-14 13-8 7-10 9-8 7-10 9-8 7-10 9-8 7-10 9-8 7-10 9-8 7-10 9-8 7-10 9-8 7-14 12-16 15-11 9-15 14-8 7-11 10-11 9-17 16-11 9-15 14-8 7-12 11-8 7-12 11-2-1 9-10 14-15 15-16 12-13 11-12 16-17 7-8 29-31 8-8 7-8 15-16 9-10 16-17 4-5h2l2-4 9-9 7-8 29-31 15-16 11-12 14-15 4-5h2l2-4 9-9 7-8 7-7 7-8 14-15 15-16 4-5h2l2-4 9-9 7-8 28-30 15-16 11-12 12-13 30-32 11-12 14-15 11-12 16-17 9-10 4-5-45-45-6-5v-2l-4-2-145-145-8-7-69-69-7-6z" fill="#87FCC0"/>
<path transform="translate(9,1114)" d="m0 0" fill="#87FCC0"/>
<path transform="translate(10,1113)" d="m0 0" fill="#87FCC0"/>
<path transform="translate(11,1112)" d="m0 0" fill="#87FCC0"/>
<path transform="translate(12,1111)" d="m0 0" fill="#87FCC0"/>
<path transform="translate(13,1110)" d="m0 0" fill="#87FCC0"/>
</svg>
